<svg xmlns="http://www.w3.org/2000/svg" viewBox="0 0 175.6 190"><defs><style>.cls-1{fill:#f7be30;}.cls-2{fill:#f6bd2e;}</style></defs><g id="Layer_2" data-name="Layer 2"><g id="Layer_1-2" data-name="Layer 1"><path class="cls-1" d="M74.9,72.9c.1-22.4.3-44.9.1-67.4C75,1.1,76.1-.3,80.5,0,86.7.5,92.8.4,99,.5l.3.4.6.7.4.4c.1,21.6.1,43.2.2,64.9v6.3l29.4-16.9c10.2-5.9,20.5-11.7,30.7-17.8,2.6-1.5,3.8-1.4,5.3,1.4,2.6,5,5.4,9.9,8.5,14.7,2,3.1,1.6,4.6-1.7,6.5-18.4,10.4-36.6,21-54.9,31.6-1.3.7-2.9,1.1-3.7,2.8,19.3,11.2,38.5,22.4,57.9,33.3,3.9,2.2,4.5,3.9,2,7.5a105.4,105.4,0,0,0-7.7,13.4c-1.8,3.6-3.4,3.4-6.6,1.6-18-10.6-36.2-21-54.4-31.5-1.2-.7-2.3-1.9-4.8-1.6v15.7c0,17.1-.1,34.2.1,51.4.1,3.8-1.1,4.9-4.8,4.7-6.3-.4-12.6-.2-18.9-.3-.3-.5-.6-.7-1-.1-1.6-1.6-.7-3.5-.7-5.2q-.2-31.3-.1-62.7c0-2.4.3-4.7-3.2-3,.1-2,1.8-2.3,3.2-2.9a1.3,1.3,0,0,0,1.7.3l36.4-21L76,74c-.2-.1-.6.1-.9.2Z"/><path class="cls-2" d="M71.9,118.7c-19.1,11.2-38.3,22.2-57.3,33.4-2.2,1.3-3.2.5-4.3-1.4-3.1-5.5-6.2-11-9.5-16.4-2.1-3.3.5-3.9,2.4-5L56.8,98.4l4.8-2.8c-.2-.9-2.9-2.7-3.7-3.1C39.8,82,21.7,71.5,3.4,61.2c-3.4-2-3.9-3.5-1.8-6.8a105.4,105.4,0,0,0,8-13.8c1.8-3.6,3.6-3.3,6.6-1.6C35.7,50.4,55.3,61.6,74.9,72.9c.1.4.1.9.2,1.3v41.6Z"/></g></g></svg>