<svg xmlns="http://www.w3.org/2000/svg" viewBox="0 0 454.7 66.1"><g fill="#c00"><path d="M27.2 0v12h-9.6V0H0v32h17.6V20h9.6v12h17.6V0H27.2zM82.5 32h17.6L88.4 0H58.9L47.2 32h17.6l1.5-4H81zM69.2 20l4.5-12.2L78.1 20zM196.1 32h17.6L202.1 0h-29.5l-11.7 32h17.6l1.5-4h14.7zm-13.2-12l4.4-12.2 4.5 12.2zM309.8 32h17.6L315.8 0h-29.6l-11.6 32h17.6l1.5-4h14.7zm-13.2-12L301 7.8l4.5 12.2zM361.1 0H321v8h11.2v24h17.6V8h11.3V0zM138.8 0l-8.3 17.9L122.1 0h-19.6v32h17.6V18.3l6.4 13.7h8l6.4-13.6V32h17.6V0h-19.7zM252.6 0l-8.4 17.9L235.8 0h-19.6v32h17.6V18.3l6.4 13.7h8l6.4-13.6V32h17.6V0h-19.6zM397.9 11.2h-14.5c-2.2 0-3.1-1.1-3.1-2.4s1-2.4 3.2-2.4 3.1 1 3.2 2.3H406c0-5.7-3.2-8.8-9.6-8.8h-22.5c-8 0-11.2 5.6-11.2 10.4s2.4 10.4 9.6 10.4H385c2.2 0 3.2 1.1 3.2 2.4s-1 2.4-3.2 2.4-3.1-1-3.2-2.3h-19.1c0 5.6 3.2 8.8 9.6 8.8h24c9.8 0 11.2-5.5 11.2-10.4 0-4.8-1.6-10.4-9.6-10.4zM437.1 0v20.8a4.8 4.8 0 1 1-9.6 0V0h-17.6v20.8c0 8 8 11.2 17.6 11.2h9.6c9.6 0 17.6-3.2 17.6-11.2V0z"/></g><path d="M0 51.9h3.7c2.9 0 5.2 1 5.2 4.2S6.5 60.2 4 60.2H2v5.6H0zm2 6.6h2A2.5 2.5 0 0 0 6.8 56c0-1.8-1.8-2.4-3.1-2.4H2zm19.4 7.3h2v-6.3h6.7v6.4h2v-14h-2v5.8h-6.6v-5.8h-2zm30.5-14.2c4.2 0 6.7 3.1 6.7 7.2S56.1 66 51.9 66s-6.7-3-6.7-7.2 2.5-7.2 6.7-7.2m0 12.7c3.2 0 4.6-2.7 4.6-5.5s-1.5-5.5-4.6-5.5-4.6 2.6-4.6 5.5 1.4 5.5 4.6 5.5m22.5 1.5h2V53.6h4.3v-1.7H70v1.8h4.3zm24.4-14.2c4.2 0 6.7 3.1 6.7 7.2S103 66 98.8 66s-6.7-3-6.7-7.2 2.5-7.2 6.7-7.2m0 12.7c3.2 0 4.6-2.7 4.6-5.5s-1.5-5.5-4.6-5.5-4.6 2.6-4.6 5.5 1.4 5.5 4.6 5.5m19.7 1.5h2V54.3l6.3 11.5h2.6v-14h-2v11.3l-6.2-11.2h-2.7zm40.2 0h2v-14h-2zM181 52.1a9.3 9.3 0 0 0-3-.5c-2.5 0-4.5 1.3-4.5 3.8 0 4.3 6 3.5 6 6.6s-1.6 2.3-2.7 2.3a8.5 8.5 0 0 1-2.9-.7l-.2 1.9a9.3 9.3 0 0 0 2.9.6c2.8 0 5.1-1.2 5.1-4.2 0-4.6-6-4-6-6.7s1.3-1.9 2.4-1.9a6.1 6.1 0 0 1 2.6.6zm35.2-.5c4.2 0 6.7 3.1 6.7 7.2s-2.5 7.2-6.7 7.2-6.7-3-6.7-7.2 2.5-7.2 6.7-7.2m0 12.7c3.2 0 4.6-2.7 4.6-5.5s-1.5-5.5-4.6-5.5-4.6 2.6-4.6 5.5 1.4 5.5 4.6 5.5m30.5-12.4h-2v7.9c0 2.7-.8 4.5-3.4 4.5s-3.4-1.8-3.4-4.5v-7.9h-2V60c0 3.9 2 6 5.4 6s5.4-2.1 5.4-6zm13.6 0h3.4c2.8 0 5.4.4 5.4 3.8a3.3 3.3 0 0 1-2.9 3.2c.6.2.9.5 1.4 1.4l2.6 5.6H268l-2.2-4.9c-.6-1.4-1.3-1.4-2.3-1.4h-1.2v6.2h-2zm2 6h1.7c1.9 0 3-.8 3-2.2s-1-2.1-2.8-2.1h-1.9zm36-6h3.8c2.9 0 4.9.9 4.9 3.5s-1.1 2.9-2.9 3.3a3.3 3.3 0 0 1 3.2 3.4c0 3-2.5 3.7-5.3 3.7h-3.7zm2 6h1.1c1.9 0 3.6-.2 3.6-2.2s-1.4-2.1-2.6-2.1h-2.1zm0 6.4h1.5c1.8 0 3.4-.4 3.4-2.3s-1.9-2.5-3.6-2.5h-1.3zM331.6 52h-2v7.9c0 2.7-.8 4.5-3.4 4.5s-3.4-1.8-3.4-4.5v-8h-2V60c0 3.9 2 6 5.4 6s5.4-2.1 5.4-6zm20.3.3a9.3 9.3 0 0 0-3-.5c-2.5 0-4.5 1.3-4.5 3.8 0 4.3 6 3.5 6 6.6s-1.6 2.3-2.7 2.3a8.6 8.6 0 0 1-2.9-.7l-.2 1.9a9.3 9.3 0 0 0 2.9.6c2.8 0 5.1-1.2 5.1-4.2 0-4.6-6-4-6-6.7s1.3-1.9 2.4-1.9a6.1 6.1 0 0 1 2.6.6zM365.4 66h2V52h-2zm15.6 0h2V54.3l6.3 11.5h2.7v-14h-2v11.3l-6.2-11.2H381zm24.7 0h7.8v-1.9h-5.8v-4.6h5.3v-1.8h-5.3v-4.1h5.8v-1.7h-7.8zm27.7-13.7a9.3 9.3 0 0 0-3-.5c-2.5 0-4.5 1.3-4.5 3.8 0 4.3 6 3.5 6 6.6s-1.6 2.3-2.7 2.3a8.5 8.5 0 0 1-2.9-.7l-.2 1.9a9.3 9.3 0 0 0 2.9.6c2.8 0 5.1-1.2 5.1-4.2 0-4.6-6-4-6-6.7s1.3-1.9 2.4-1.9a6.1 6.1 0 0 1 2.6.6zm20.1 0a9.3 9.3 0 0 0-3-.5c-2.5 0-4.5 1.3-4.5 3.8 0 4.3 6 3.5 6 6.6s-1.6 2.3-2.7 2.3a8.5 8.5 0 0 1-2.9-.7l-.2 1.9a9.3 9.3 0 0 0 2.9.6c2.8 0 5.1-1.2 5.1-4.2 0-4.6-6-4-6-6.7s1.3-1.9 2.4-1.9a6.1 6.1 0 0 1 2.6.6z" fill="#231815"/></svg>