<svg id="レイヤー_1" data-name="レイヤー 1" xmlns="http://www.w3.org/2000/svg" width="523.53" height="206.02" viewBox="0 0 523.53 206.02">
  <g>
    <g>
      <path d="M57,107.56A50.57,50.57,0,1,1,107.56,57,50.56,50.56,0,0,1,57,107.56M57,0a57,57,0,1,0,57,57A57,57,0,0,0,57,0" fill="#4b1e78"/>
      <path d="M75.9,67.91A2.86,2.86,0,0,1,72,69l-7-4V61.65L67.9,60l6.95,4a2.85,2.85,0,0,1,1.05,3.89m-15.63-9L57,60.77l-3.28-1.89V55.1L57,53.21l3.27,1.89ZM54.15,38a2.85,2.85,0,1,1,5.69,0v8L57,47.69,54.15,46ZM48.93,64.93l-7,4A2.84,2.84,0,1,1,39.14,64l7-4,2.84,1.65ZM98.42,80l-8.28-9.67a1.79,1.79,0,0,0-.36-.3,1.43,1.43,0,0,0-1.33,0,4.45,4.45,0,0,1-4.1-.17,4.37,4.37,0,0,1-2.13-3h0a11.19,11.19,0,0,0-5.41-7.64L73.11,57,94.18,44.83l-2.6-4.52L67.9,54l-2.85-1.64V49.05L88.73,35.39l-2.61-4.52L65.05,43V38.75a11.12,11.12,0,0,0-3.91-8.49,4.42,4.42,0,0,1,.37-7,1.41,1.41,0,0,0,.62-1.18,1.77,1.77,0,0,0-.07-.46l-4.23-12a.88.88,0,0,0-1.67,0l-4.23,12a1.43,1.43,0,0,0-.07.46,1.41,1.41,0,0,0,.62,1.18h0a4.42,4.42,0,0,1,.36,7,11.16,11.16,0,0,0-3.91,8.49V43L27.87,30.87l-2.61,4.52L48.93,49.05v3.29L46.09,54,22.41,40.31l-2.6,4.52L40.87,57l-3.7,2.14a11.16,11.16,0,0,0-5.41,7.64h0a4.36,4.36,0,0,1-2.12,3,4.45,4.45,0,0,1-4.1.17,1.43,1.43,0,0,0-1.33,0,1.79,1.79,0,0,0-.36.3l-8.28,9.66a.88.88,0,0,0,.84,1.45l12.5-2.34a1.41,1.41,0,0,0,1.15-1.29,4.4,4.4,0,0,1,2.19-3.46A4.35,4.35,0,0,1,35.91,74a11.2,11.2,0,0,0,9.32-.87L48.93,71V95.28h5.22V67.94L57,66.3l2.84,1.64V95.28h5.21V71l3.71,2.13a11.2,11.2,0,0,0,9.32.87,4.35,4.35,0,0,1,3.66.34,4.4,4.4,0,0,1,2.19,3.46,1.43,1.43,0,0,0,.71,1.13,1.46,1.46,0,0,0,.44.16l12.5,2.34a.9.9,0,0,0,.94-.42.89.89,0,0,0-.1-1" fill="#4b1e78"/>
      <polygon points="436.46 45.42 417.44 45.42 417.44 7.39 400.07 7.39 400.07 106.6 417.44 106.6 417.44 63.03 436.46 63.03 436.46 106.6 454.22 106.6 454.22 7.39 436.46 7.39 436.46 45.42" fill="#4b1e78"/>
      <polygon points="169.01 7.39 155.88 46.04 144 7.39 126.67 7.39 145.96 68.22 145.96 106.6 165.26 106.6 165.26 66.25 185.25 7.39 169.01 7.39" fill="#4b1e78"/>
      <polygon points="285.93 54.58 276.28 7.39 249.15 7.39 249.15 106.6 264.71 106.6 264.71 31.81 277.98 96.83 292.51 96.83 304.28 30.76 304.28 106.6 322.52 106.6 322.52 7.39 294.25 7.39 285.93 54.58" fill="#4b1e78"/>
      <path d="M484.84,67l7.39-44.37L499.41,67ZM507.16,7.39H480.29L462.16,106.6h16.08l3.84-23.09h20l3.72,23.09h17.72Z" fill="#4b1e78"/>
      <path d="M353.15,67l7.39-44.37L367.72,67ZM348.6,7.39,330.46,106.6h16.08l3.85-23.09h20l3.73,23.09h17.71L375.46,7.39Z" fill="#4b1e78"/>
      <path d="M202.23,67l7.4-44.37L216.8,67ZM197.68,7.39,179.54,106.6h16.09l3.85-23.09h20l3.74,23.09h17.71L224.55,7.39Z" fill="#4b1e78"/>
    </g>
    <g>
      <path d="M470.23,191.32c11.18-.71,22.15-.18,35.7-.29-11.24-1-24.81-.37-40.63-1.24,9.05-.2,19.77.19,25.27.4,7.14-.19,19.92.16,30.2.32.1-.31-1.94-.14-2.74-.25.56-.63,4.65-.14,5.5-.66-5.53-.63-12.18-.93-18.08-1.39.77-.36,4.65.22,5.5-.12-7.85-.85-18.51-.49-27.48-1.28-3.12-.26-5.39-.86-8.24-1-9.64-.56-19.51,0-30.25-.13-13.8,0-29.07-.19-44.56.12,1.08-.41,5.47,0,6.6-.38-12.18-.25-24.22-.25-38,.06l-35.76.74-40.16,1.21-21.47.35-110.13,3.92c-10.49.22-21.41.48-31.44,1.13l-24.75,2.09c-3.71.36-7.95.58-13.16,1.54a171,171,0,0,0-16.92,3c.48.16-1,0,0,0-3.46.64-1.77,1.38-5.36,2.1.1.27,1.86-.12,2.22,0-1.8.46-4.6,1.23-1.56,1.22-1.64.43.88.66,1.46.63,5.61-.3,2.19,1.93,3.73,2.34,21,1.08,35.68-2.05,58.93-2.8,13.49-.61,29.07-1.82,44-2.27l57.67-2.46L270.37,197c9.06-.47,19.91-.73,28-1,16.88-.6,34.95-2,52.69-2.3l33.51-.5c-.09-.17-1-.1-1.65-.11,5.88.19,10.51-.68,19.21-.43-4.15.59,1.49.24,4.4.1,13.79-.68,31.89-.63,43.93-1.48l2.2.31c.62,0,.3-.15,0-.15h-.55c-.1-.13.21-.14.55-.15,19.15.22,17.57,0,17.57,0" fill="#7d6099" fill-rule="evenodd"/>
      <g>
        <path d="M154.94,172.08c-.06,4.58.18,6.31.5,7a9.94,9.94,0,0,1-5.53,2.75,4.33,4.33,0,0,1-3.38-1.19c-.59-1.34-.38-3.91-.28-5.34.53-8,3.33-20.74,4.49-27.08a.67.67,0,0,0-1.09-.61c-12.27,13.71-21.34,25.3-23,29.21a30.86,30.86,0,0,1-5.41,2.24,7.17,7.17,0,0,1-3.2-2.14,44.58,44.58,0,0,0-.25-4.74c-.58-5.84.19-17.29-.46-21.42-.07-.44-.74-.59-1.19-.08-6,10-12.72,21.47-17.74,29.42a8.19,8.19,0,0,1-3.8,2.29c-1.28-.14-3-3.26-2.44-4.25,4.15-6.78,4.4-6.57,11.16-17.42,6-9.7,10.17-16.49,11.52-19.54.58-1.3,2.62-1.93,4.3-2.3a17.39,17.39,0,0,1,4.17,1.74c1.53,6.07.09,19.14,1.13,26.07.12.75.72.84,1.24.3,7.32-8.54,18.61-20.5,25.76-28.59a15,15,0,0,1,6.22-1.65c1,.74,2.69,2.32,3,3.77-2.3,5.73-5.61,22.92-5.71,31.56" fill="#7d6099"/>
        <path d="M221.34,162.7c7.48-4.16,13.21-7.75,17.57-11.74a13.27,13.27,0,0,1,3.39.34,4.17,4.17,0,0,1,1.16,2.77c-2.38,2.7-13,7.51-17,9.92-.37.18-.38.43-.15.74C230,168.44,235.2,173,240,174.3a3.74,3.74,0,0,1-.46,2.06c-1.47.86-4.42,2.4-6.52,2.53-5.77-5.41-9.5-8.9-13.59-12.53a.58.58,0,0,0-.84.21,68.42,68.42,0,0,0-3.49,10.83,12.74,12.74,0,0,1-5.59,2.1c-.91-.23-3.49-1-3.9-1.75,1.57-2.17,5.42-9.5,11.29-24.44,4.8-12.29,6.64-17.65,5.58-19.35a24.9,24.9,0,0,1,7.08-2.11,7.91,7.91,0,0,1,2.7,2.49c-3.85,8.32-7.06,15.55-11.89,27.5a.73.73,0,0,0,1,.86" fill="#7d6099"/>
        <path d="M265.75,149c4.89-.11,10.61.72,11.13,3.67.69,4.68-9.2,11.47-21.52,9.61a12.26,12.26,0,0,0-2.2,8.14c.23,1.53,1.54,2.6,4,2.5,9.15-.36,21.2-6.27,27.77-11.76.42.44.29.75-.41,1.5-1.25,1.33-3.79,2.87-4.12,4.4-7.34,6.58-19.34,11.35-27.48,11.59-5.13.16-7.34-1.56-7.66-4.68-.73-7.4,6.76-18.42,15.55-24.21a19.27,19.27,0,0,1,4.95-.76m-9.48,11.4c6-.13,14.38-3,14.05-6.37-.17-1.64-4.34-1.95-7.19-1.77a35.58,35.58,0,0,0-6.86,8.14" fill="#7d6099"/>
        <path d="M357.69,158.17c-3.37,4.07-11.08,13.46-11.46,16.35a12.6,12.6,0,0,1-5.55,2.43,10.67,10.67,0,0,1-3.21-1.91,99.85,99.85,0,0,1-2.78-15.1c-.47-4.76-.81-7.07-1.15-10,0-.7-.55-.95-1.13-.44-6.43,7.05-17.63,17.65-25.72,26.77a19.23,19.23,0,0,1-6.64,1.63c-1.68-1.2-2-3.42-2.27-6-.83-8.3,6.15-24.42,5.62-29.76a2.37,2.37,0,0,1,.41-1.49,13.66,13.66,0,0,1,4.9-2.33,4.55,4.55,0,0,1,2.74,2.91c.25,2.54-1.36,7.6-3,12.82s-3.18,10.6-2.85,13.89c0,.41.47.56.87.14,9.9-8.1,20.56-20,24.42-25.59a20.88,20.88,0,0,1,6.9-2.37,8.82,8.82,0,0,1,2.86,1.83c.32,3.2.48,9.83,1.3,18a33.79,33.79,0,0,0,1.14,6.1c.19.69.77.7,1.17.28,6.87-8.3,17.25-20.23,23.18-27.54,1.27-.69,1.6-1.48,3.24-1.76a3.65,3.65,0,0,1,2.63,1.75c-2.51,5.08-12.29,15.32-15.66,19.38" fill="#7d6099"/>
        <path d="M414.24,150.33c-.27,6.26-.64,9.6-.3,14.28a7.33,7.33,0,0,0,.41,2.13c.16.41.49.56.79.14a161.92,161.92,0,0,1,21.5-19.52c1.49.11,3.79.31,4.94,1-11.54,9-16.56,15-24.09,25.06a18.31,18.31,0,0,1-7.11,2.54,22,22,0,0,1-2.95-9.57,96.07,96.07,0,0,1-.15-10.66c0-.94-3.09,1.84-3.57,1.17-.29-.4.43-1.82.48-2.66a46.21,46.21,0,0,1,6.17-5.37,12,12,0,0,1,3.78,1Z" fill="#7d6099"/>
        <path d="M497.64,146.71a5.65,5.65,0,0,1,.57,2.12,9.13,9.13,0,0,1-4.51,2.58,11.79,11.79,0,0,0-5.51-1.89,7.14,7.14,0,0,0-3.19.83c-2.31,1.33-3.37,3.38-3.22,4.92.13,1.28.88,1.78,6.24,2,5.6.3,8.72,1.35,9,4.25.61,6.07-10,14.23-22.7,14.37-5.29,0-7.21-.39-7.75-2.06s.55-4.56,3.31-8.6a8.87,8.87,0,0,1,4.16,0,9,9,0,0,0-1.43,5.18c.22,1.4,1.59,1.94,4.48,1.87,6.95-.15,12-4.28,11.58-8.47-.15-1.45-1.13-1.94-6.6-2.08s-7.52-1-7.74-3.17c-.41-4.1,8.8-13,15.4-13.18a29.93,29.93,0,0,1,7.9,1.29" fill="#7d6099"/>
        <path d="M392.66,150.18a10,10,0,0,1,2.38-1.26,6,6,0,0,1,3,1.09c-3,5.74-6.34,12.7-6.5,17.9,0,1.15.49,1.62,1.6,1.67.74,0,1.66-.07,3.32-1.58a1.17,1.17,0,0,1,.27.93c-.15.56,0,.29-.26.66-.82,1-.06,1.51-1,2.45-3.29,2.57-5.34,3.36-8,3.15a3.07,3.07,0,0,1-2.72-2.41,14.5,14.5,0,0,1,.84-7.69c.17-.36-.14-.74-.54-.32-6.77,7.06-14.11,11-19.24,11.18a4.33,4.33,0,0,1-4.12-3.79c-.46-6.16,4-14.85,15.06-21.14a18.16,18.16,0,0,1,9.42-2.28,19.6,19.6,0,0,1,6.47,1.44m-22.77,18.11c.21,1.09,1.59,1.35,2.37,1.35,3.56,0,11.56-5.76,17.44-16.1a5.71,5.71,0,0,0-4.72-2c-4.93.09-16.46,9.9-15.09,16.78" fill="#7d6099"/>
        <path d="M456.32,146.49c4.9-.11,9.21.62,9.73,3.58.69,4.67-6.94,13.71-21.84,11.89a8.76,8.76,0,0,0-.81,6.39,3.51,3.51,0,0,0,3.84,2.58,32.37,32.37,0,0,0,14.9-4c.59.48-.64,1.09-.6,1.43s.82.33,0,1c-4.49,3.14-13.33,6.65-18.78,6.77-4.24.09-6.63-1.51-6.94-4.63-.73-7.39,6.37-18,15.16-23.81a15.77,15.77,0,0,1,5.33-1.16m-10.94,13.3c8.59-.38,14.12-4.89,13.79-8.26-.16-1.64-3-2.06-5.82-1.88-2.07,1.61-6,7-8,10.14" fill="#7d6099"/>
        <path d="M200.85,172.3h0c-1.93,1.32-4.56,2.56-5.7,2.58-.81,0-1.45-.65-1.57-1.83-.53-5.33,4.26-14.93,7.35-20.85a6.23,6.23,0,0,0-3.1-1.12,18.15,18.15,0,0,0-3.29,1.67,18.22,18.22,0,0,0-5.31-1.49A21.36,21.36,0,0,0,179,153.78c-12.37,6.66-17.36,17.4-16.74,23.66.22,2.2,3.27,2.79,4.65,2.8,5.29,0,13.36-4.74,19.77-11.6.42-.43,1,0,.79.33a15.66,15.66,0,0,0-.85,8.09c.47,1.63,1.35,2.53,2.61,2.6,4.57.26,9.84-3,12.75-5h0a2.16,2.16,0,0,0,1.06-1.82c.29-.88,2.61-2.72,2.22-3.6,0,0-3.36,2.37-4.44,3.07M173,174.14a1.82,1.82,0,0,1-2.21-1.4c-.66-6.48,8.95-18.44,16.8-18.81,1.2-.06,3.77,1.41,4.56,2.41-6.07,10.64-14.79,16-19.15,17.8" fill="#7d6099"/>
      </g>
    </g>
  </g>
</svg>
