<svg xmlns="http://www.w3.org/2000/svg" viewBox="0 0 890.76 582.17"><defs><style>.cls-1{fill:#ffb8b8;}.cls-2{fill:#575a89;}.cls-3{fill:#2f2e41;}.cls-4{fill:#3f3d56;}.cls-5{fill:#a0616a;}.cls-6{isolation:isolate;opacity:0.2;}</style></defs><g id="Layer_2" data-name="Layer 2"><g id="Layer_1-2" data-name="Layer 1"><path class="cls-1" d="M668.89,222.24S623.2,213,629,232.65s44,6.94,44,6.94Z"/><path class="cls-2" d="M767.48,118.35a4.29,4.29,0,0,1,7.11,2.45l1.57,9.08s7.06,36.28,1,59.33-10.34,53.41-26.67,56.65c-14,2.77-67.14-1.62-82.19-2.94a4.29,4.29,0,0,1-3.91-4.36l.28-13.24a4.3,4.3,0,0,1,3.84-4.18l60.86-6.49a4.28,4.28,0,0,0,3.79-3.66c1.45-10.36,6.13-42.46,10.78-59.34C747.71,138,760.05,125.14,767.48,118.35Z"/><polygon class="cls-1" points="727.94 505.36 727.94 533.12 743.55 536.59 753.97 531.38 752.81 509.4 727.94 505.36"/><polygon class="cls-1" points="820.2 505.36 820.2 533.12 835.82 536.59 846.23 531.38 845.08 509.4 820.2 505.36"/><path class="cls-3" d="M759.17,279.76S738.35,322,738.93,355A452.71,452.71,0,0,1,736,414.54l-10.42,98.91,33.55,1.74,15.62-106.44,30.08-82.14,11.57,97.76,2.89,98.34h28.93s13.3-93.13,5.78-114c0,0,17.35-116.85,3.47-122.63S759.17,279.76,759.17,279.76Z"/><path class="cls-3" d="M738.35,525.6s-5.79-21.4-13.88-10.41-31.24,29.5-31.24,29.5-34.71,18.51-2.89,23.14S725.62,562,725.62,562s5.21-2.89,9.84-1.15,24.87,1.15,26-5.79-6.37-45.12-8.68-38.18S738.35,525.6,738.35,525.6Z"/><path class="cls-3" d="M844.79,525s0-6.36-11-6.94S821.07,525,821.07,525s-2.89,2.89-3.47,11.57,0,31.24,0,31.24-5.21,17.35,18.51,13.88,15-21.4,15-21.4Z"/><path class="cls-1" d="M802.56,64l-2.89,32.39-5.21,12.15,13.88,19.67,34.13-31.82S836.11,79,840.16,69.2Z"/><path class="cls-2" d="M880.07,119.52l-.26,2.85L869.66,230.59s-.4,5-1.14,11.74c-1.25,11.35-3.47,27.49-6.38,32.22-4.63,7.52-1.16,13.88-1.16,13.88-26.61,15.62-105.28-6.94-105.28-6.94l17.93-71.73s-16.19-74.62-14.46-81.56,38.18-31.82,38.18-31.82l1.08,2.9c15.53,20.82,31.32,2.89,35.94-1.16l9.26-8.1Z"/><path class="cls-4" d="M761.11,318c-55.14,7.48-107.76,10.22-156.44,5.61a376.48,376.48,0,0,1-51.32-8.81c-31-7.33-69-7.33-110.7-3.42a317.47,317.47,0,0,0-74.51,15.8c-32.35,11.2-67.79,10.23-105.37.85a192.09,192.09,0,0,1-44.24-17.61c-27.47-14.76-60-9.42-95.42,7.58V186c33.09-14.41,65.31-16.73,96.51-4.59a204.1,204.1,0,0,0,35.15,10.49A277.06,277.06,0,0,0,385.32,186c57.37-19.44,117.38-13.4,178.15,0,67.71,14.3,133.7,15.14,197.64,0Z"/><polygon class="cls-3" points="55.97 314.35 75.06 402.76 17.06 532.9 51.01 547.75 116.08 398.51 74.49 267.45 49.73 273.81 55.97 314.35"/><path class="cls-3" d="M39,290s7.07,12.73,22.63,23.34S109.72,394,109.72,394L74.35,535.47l48.81,13.43L150,382.69,94.87,258.21Z"/><path class="cls-3" d="M21.31,528s-7.08,7.78-4.25,13.44,4.25,20.51,4.25,20.51h6.36v-17L48.18,564s47.39,4.24,46.69,0-28.3-14.15-28.3-14.15L53.14,529.36Z"/><path class="cls-3" d="M83.55,529.81s-7.07,7.78-4.24,13.44,4.24,20.51,4.24,20.51h6.36v-17l20.52,19.1s47.38,4.24,46.68,0-28.29-14.15-28.29-14.15l-13.44-20.51Z"/><circle class="cls-5" cx="66.57" cy="69.36" r="26.88"/><path class="cls-5" d="M44.65,70.78s-2.12,26.87-15.56,36.78S15.65,126,15.65,126L70.11,150.7,57.38,123.82s-3.54-1.41,2.12-8.48,10.61-24,10.61-24Z"/><path class="cls-2" d="M100.17,261.39h0A152.14,152.14,0,0,1,50,290.54L37.11,295S10,262.06,23.68,236.1a40.58,40.58,0,0,1,11.77-14l-.28-1.24-6.88-30-.62-2.69L7.16,183.24l-.18,0c-1.54.4-11.94,2.31-4.06-22,5.24-16.16,9-31.55,11.18-40.95A10,10,0,0,1,26,112.81l.42.11c6.56,1.8,14.72,5.22,19.61,11.61,9.2,12,11-.53,11-.53s25.73,28.82,24.32,41.55a50.19,50.19,0,0,0,.31,10.25h0c.17,1.51.37,3.09.61,4.7,1.75,11.91,5.15,25.76,6.39,30.62.09.35.17.65.23.91.15.58.24.9.24.9Z"/><path class="cls-6" d="M63.74,225.67l-5.65,19.1s-21.7-5.53-34.41-8.67a40.58,40.58,0,0,1,11.77-14l-.28-1.24-6.88-30-.62-2.69L7.16,183.24l-.18,0L5.75,174s35.36,2.12,37.48,10.61S41.11,201.63,39,203s0,0,4.24,2.12-1.41,0-4.24,4.25.71.7,1.41,2.83,0-.71-.7,2.82,2.83.71,3.53.71S63.74,225.67,63.74,225.67Z"/><path class="cls-5" d="M57.38,222.14l46,12s24.76-25.46,38.2-17.68-24.05,25.46-24.05,25.46l-13.44,2.83-48.8-5.66Z"/><path class="cls-2" d="M5.75,171.21l2.83,21.22s-2.13,0,0,4.95,0,14.86,0,14.86-4.25.7-.71,2.82,7.07,7.78,5.66,9.91-4.25,4.95,2.12,6.36,42.44,10.61,42.44,10.61l5.65-19.1s-19.8-9.9-20.51-9.9-4.24,2.83-3.53-.7,1.41-.71.7-2.83-4.24,1.41-1.41-2.83,8.49-2.12,4.24-4.25-6.36-.7-4.24-2.12,6.37-9.9,4.24-18.39S5.75,171.21,5.75,171.21Z"/><path class="cls-2" d="M60.38,116.86l2.13-3.39a7.07,7.07,0,0,0-2.23-9.75L44.05,93.5a7.08,7.08,0,0,0-9.76,2.23l-2.13,3.38a7.08,7.08,0,0,0-6,3.31l-5.24,8.33a7.09,7.09,0,0,0,2.22,9.76h0L45,134.27a7.07,7.07,0,0,0,9.75-2.22L60,123.71A7.08,7.08,0,0,0,60.38,116.86Z"/><path class="cls-3" d="M65.64,68.9c1.5-2.19.84-5.25,1.92-7.68,1.69-3.82,6.67-4.61,10.84-4.86a32.12,32.12,0,0,1,8.31.22,8,8,0,0,1,5.66,4.32c.58,1.25.52-2.62.25-7.6a24,24,0,0,0-17.9-21.93l-.17-.05C69.51,30,64.3,29,59.12,29.53s-10.39,2.58-13.71,6.59c-1.52,1.83-2.61,4-4.3,5.68-3,2.94-7.27,3.94-11.24,5.24a33.55,33.55,0,0,0-12.36,6.74,18.2,18.2,0,0,0-6.19,12.34c-.21,5.51,3.15,11.28,8.77,12.5a6.34,6.34,0,0,1,2.68,1.24c5.3,4.31-1,8.54-1,13.25C21.68,97,26,99.7,29.91,100A15.82,15.82,0,0,0,46,87.85c.67-3.21.29-6.53,0-9.79-.35-3.74,7.89-12.32,2.43-6a9.35,9.35,0,0,0-2.13,4.22c-1,5.12,3.63,7,6.51,9.87A12.23,12.23,0,0,1,55.4,98.78a14.08,14.08,0,0,0,3-17.72c-.91-1.48-2.11-2.78-3-4.29-1.35-2.35-1.61-7.41,2.31-7.17C60.54,69.76,63.4,72.17,65.64,68.9Z"/><circle class="cls-1" cx="822.23" cy="50.11" r="29.5"/><path class="cls-6" d="M878.65,123.53,868.5,231.74s-.4,5-1.14,11.75c-21.53,5.14-81,9.08-81,9.08l-2.89-20.83,65.94-17.93s-8.1-45.12,1.16-63.63a141.84,141.84,0,0,0,6.07-13.84,20.09,20.09,0,0,1,22-12.81Z"/><path class="cls-1" d="M789.83,228.85s-45.7-9.25-39.91,10.41,44,7,44,7Z"/><path class="cls-2" d="M862.14,116.63l17.93,2.89S892.8,154.23,890.48,178s-1.73,54.37-17.35,60.16-85.61,10.41-85.61,10.41l-2.89-20.83,65.94-17.93s-8.1-45.12,1.16-63.63S862.14,116.63,862.14,116.63Z"/><path class="cls-3" d="M797.07,20.14l-5.67-2.27S803.26,4.82,819.75,6L815.11.85s11.34-4.54,21.65,7.38c5.42,6.26,11.69,13.63,15.6,21.92h6.08l-2.54,5.58,8.87,5.58-9.1-1a31.25,31.25,0,0,1,.24,9.26,12,12,0,0,1-4.38,7.83h0s-7-14.56-7-16.83v5.68s-5.67-5.11-5.67-8.51l-3.1,4H815.11l3.1-5.11-11.86,1.7L811,32.06,792.63,57.84S782.12,28.66,797.07,20.14Z"/></g></g></svg>