<?xml version="1.0" encoding="utf-8"?>
<svg version="1.1" id="Layer_1" xmlns="http://www.w3.org/2000/svg" xmlns:xlink="http://www.w3.org/1999/xlink" x="0px" y="0px"
	 viewBox="0 0 176.7 27.1" style="enable-background:new 0 0 176.7 27.1;" xml:space="preserve">
<style type="text/css">
	.st0{fill:#FABE00;}
	.st1{fill:#FFFFFF;}
	.st2{fill:#231916;}
</style>
<g id="full_x5F_logo">
	<g id="logo">
		<polygon class="st0" points="25.2,8.3 23.4,5.2 14.4,10.4 14.4,0 10.8,0 10.8,10.4 1.8,5.2 0,8.3 9,13.5 0,18.8 1.8,21.8 
			10.8,16.6 10.8,27.1 14.4,27.1 14.4,16.6 23.4,21.8 25.2,18.8 16.2,13.5 		"/>
		<polygon class="st1" points="10.8,10.4 10.8,16.6 16.2,13.5 		"/>
	</g>
	<g id="asterone">
		<path class="st0" d="M141.4,16.3c-0.1,2.8-1.2,4-3.9,4h-6c-1,0-2-0.4-2.8-1.1c-0.6-0.8-0.8-1.9-0.8-2.9v-5.2
			c0.1-3.2,1.4-4.3,4.7-4.3h4.1c3.4,0.1,4.6,1.2,4.7,4.3L141.4,16.3z M136.2,17.7c1.8,0,2-0.3,2-2.1v-4c0-1.7-0.5-2.3-2.2-2.3h-2.6
			c-1.7,0.1-2.1,0.4-2.1,2.3v4c-0.1,1.7,0.2,2,1.7,2L136.2,17.7z"/>
		<path class="st0" d="M150.2,6.8l5.5,8.4V6.8h3.2v13.5h-3.6l-5.6-8.5v8.5h-3.1V6.8H150.2z"/>
		<path class="st0" d="M176.7,6.8v2.6h-9.4v2.6h8.4v2.6h-8.4v3.2h9.4v2.6h-12.5V6.8H176.7z"/>
		<g id="aster">
			<path class="st2" d="M45.1,6.8h4.3l4.8,13.5h-3.3l-1.1-3.1h-5.1l-1,3.1h-3.3L45.1,6.8z M49,14.6L47.1,9l-1.8,5.6H49z"/>
			<path class="st2" d="M70.6,9.4h-7.7c-1.1,0-1.3,0.2-1.3,1v0.9c0,0.6,0.2,0.7,1.6,0.7h4.5c1.7,0,2,0.1,2.6,0.4
				c0.7,0.4,1.1,1.3,1,2.1v2.9c0.1,1-0.5,2-1.4,2.5c-1.1,0.4-2.2,0.5-3.4,0.4h-8v-2.6h7.4c1.9,0,2.1-0.1,2.1-0.8v-1.3
				c0-0.9-0.4-1-2.3-1h-4.2c-2.2,0-3.1-0.7-3.1-2.3V9.8c0-2.1,0.9-3,3.2-3h9.1L70.6,9.4z"/>
			<path class="st2" d="M75.7,6.8h12.6v2.6h-4.7v11h-3.2v-11h-4.7V6.8z"/>
			<path class="st2" d="M105.5,6.8v2.6h-9.4v2.6h8.4v2.6h-8.4v3.2h9.4v2.6H93V6.8H105.5z"/>
			<path class="st2" d="M123.1,12.4v-2.3c0-2.4-1.2-3.4-3.8-3.4h-8.8v13.5h3.1v-5h2.6l3.3,5h3.6l-3.2-5
				C122,15.1,123.1,14.2,123.1,12.4z M113.6,9.3h4.3c1.5,0,2,0.4,2,1.5v0.5c0,1-0.3,1.3-1.6,1.3h-4.7L113.6,9.3z"/>
		</g>
	</g>
</g>
</svg>
