<svg xmlns="http://www.w3.org/2000/svg" viewBox="0 0 70.61 70.62"><defs><style>.cls-1{fill:#fabe00;}.cls-2{fill:#fff;}</style></defs><g id="Layer_2" data-name="Layer 2"><g id="レイヤー_1" data-name="レイヤー 1"><path class="cls-1" d="M70.61,49.62c-.45,14.78-6.13,20.65-20.42,21H18.68C13,70.62,6.87,68.2,4,64.83c-2.57-2.94-4-8.38-4-15V22.72C.55,6.05,7.23-.08,24.45,0H46.16c18,.35,24.36,6.05,24.45,22.46Z"/><polygon class="cls-2" points="61.44 24.49 57.74 18.08 39 28.9 39 7.26 31.6 7.26 31.6 28.9 12.86 18.08 9.16 24.49 27.9 35.31 9.16 46.13 12.86 52.53 31.6 41.72 31.6 63.36 39 63.36 39 41.72 57.74 52.53 61.44 46.13 42.7 35.31 61.44 24.49"/><polygon class="cls-1" points="31.6 28.9 31.6 41.72 42.7 35.31 31.6 28.9"/></g></g></svg>